# xmcd
#
# Track frame offsets:
#	150
#	14217
#	30834
#	47782
#	65914
#	84228
#	98525
#	112152
#	133621
#	155509
#	173062
#	184156
#	195141
#	206910
#	220388
#	235578
#	250981
#	262106
#
# Disc length: 3709 seconds
#
# Revision: 0
# Processed by: cddbd v1.5.1PL0 Copyright (c) Steve Scherf et al.
# Submitted via: dBpowerAMP V4.0
#
DISCID=fe0e7b12
DTITLE=Various Artist - a country line dance collection
DYEAR=1998
DGENRE=line dance
TTITLE0=run run - fat cat band
TTITLE1=thinkin'bout you - capricorn
TTITLE2=burnin ' fire - watermelon henry
TTITLE3=no money - les paine poss
TTITLE4=boot scootin' baby - oaaron wolley
TTITLE5=one more drink - j.c. band
TTITLE6=born to love you - les pear
TTITLE7=shoot the moon - les spear
TTITLE8=helping hand - les paine posse
TTITLE9=i wanna watch you dance all night - bill todd
TTITLE10=when you go dancin' - leroy lovvit
TTITLE11=turnin' up the heat - gary floyd
TTITLE12=you ring my bell - ray griff
TTITLE13=toe tappin' country man - john p. sweisshelm
TTITLE14=i must be stuppid - swamp honkys 
TTITLE15=rock 'n'nroll time capsule - fredy weller
TTITLE16=don't call me - becky hobbs
TTITLE17=ready to be wrong - coty's ride
EXTD=
EXTT0=
EXTT1=
EXTT2=
EXTT3=
EXTT4=
EXTT5=
EXTT6=
EXTT7=
EXTT8=
EXTT9=
EXTT10=
EXTT11=
EXTT12=
EXTT13=
EXTT14=
EXTT15=
EXTT16=
EXTT17=
PLAYORDER=
